<svg width="262" height="225" viewBox="0 0 262 225" fill="none" xmlns="http://www.w3.org/2000/svg">
<path d="M120.545 224.253V122.995C120.545 76.3848 110.499 37.8104 90.4084 7.27241C69.514 -23.2656 39.3778 -43.3564 -0.000152588 -53V-10.8094C24.1088 -4.38029 41.3869 7.67419 51.8341 25.3541C62.2813 42.2304 68.3085 64.3303 69.9158 91.6537H24.1088V224.253H120.545ZM261.362 224.253V122.995C261.362 76.3848 251.316 37.8104 231.226 7.27241C210.331 -23.2656 180.195 -43.3564 140.817 -53V-10.8094C164.926 -4.38029 182.204 7.67419 192.651 25.3541C203.099 42.2304 209.126 64.3303 210.733 91.6537H164.926V224.253H261.362Z" fill="url(#paint0_linear_9_1824)"/>
<defs>
<linearGradient id="paint0_linear_9_1824" x1="244.864" y1="208.929" x2="0.740399" y2="-56.4224" gradientUnits="userSpaceOnUse">
<stop stop-color="#E8F1FF"/>
<stop offset="1" stop-color="#F7FAFF"/>
</linearGradient>
</defs>
</svg>
