<svg width="262" height="278" viewBox="0 0 262 278" fill="none" xmlns="http://www.w3.org/2000/svg">
<path d="M140.817 277.253V175.995C140.817 129.385 150.863 90.8104 170.953 60.2724C191.848 29.7344 221.984 9.64355 261.362 0V42.1906C237.253 48.6197 219.975 60.6742 209.528 78.3541C199.08 95.2304 193.053 117.33 191.446 144.654H237.253V277.253H140.817ZM0 277.253V175.995C0 129.385 10.0454 90.8104 30.1362 60.2724C51.0306 29.7344 81.1668 9.64355 120.545 0V42.1906C96.4358 48.6197 79.1577 60.6742 68.7105 78.3541C58.2633 95.2304 52.2361 117.33 50.6288 144.654H96.4358V277.253H0Z" fill="url(#paint0_linear_9_1823)"/>
<defs>
<linearGradient id="paint0_linear_9_1823" x1="16.4977" y1="261.929" x2="260.621" y2="-3.42244" gradientUnits="userSpaceOnUse">
<stop stop-color="#E8F1FF"/>
<stop offset="1" stop-color="#F7FAFF"/>
</linearGradient>
</defs>
</svg>
