<svg width="191" height="309" viewBox="0 0 191 309" fill="none" xmlns="http://www.w3.org/2000/svg">
<g clip-path="url(#clip0_9_1846)">
<path d="M95.2341 33.2975C95.9729 36.8811 97.0981 40.2907 97.6586 43.8361C98.0662 46.4177 98.5205 48.9993 98.7413 51.5979C98.8687 53.0627 99.357 53.7251 100.852 53.9034C107.875 54.7399 114.558 56.7398 120.748 60.1918C130.943 65.873 138.573 74.1188 144.798 83.9058C151.931 95.1238 155.23 107.845 159.481 120.184C165.905 138.841 171.9 157.651 179.106 176.019C182.362 184.32 185.904 192.477 187.717 201.262C188.693 205.992 189.008 210.777 189.267 215.575C189.988 228.988 187.891 241.956 182.664 254.328C177.696 266.086 170.427 276.242 160.852 284.764C145.537 298.398 127.521 305.888 107.331 308.232C89.5444 310.299 72.2291 308.257 55.538 301.455C40.609 295.37 27.9941 286.229 18.0711 273.503C12.3305 266.145 7.84245 258.082 4.89995 249.182C-3.01888 225.213 -1.16337 201.903 9.17145 178.995C12.891 170.754 15.6381 162.092 18.5764 153.532C23.3956 139.486 28.321 125.474 32.9874 111.378C35.7261 103.106 38.435 94.8478 42.7235 87.222C49.7889 74.6622 59.1854 64.4293 72.4669 58.2938C77.8848 55.7929 83.6552 54.2983 89.6336 53.8228C91.0942 53.7081 91.6462 53.5213 91.1112 51.8654C88.1814 42.7831 83.9015 34.4779 77.1121 27.6715C73.0401 23.5911 68.3398 20.3174 63.0068 18.0161C59.4401 16.479 57.0369 13.9102 56.5656 9.9741C56.107 6.16117 57.6865 3.18046 61.0239 1.27824C64.1107 -0.475365 67.2655 -0.35223 70.2972 1.47356C76.5771 5.26101 81.5704 10.4369 85.9311 16.254C88.8311 20.1263 88.7759 20.1815 92.1982 16.6828C100.656 8.04216 110.643 2.30578 122.727 0.488482C131.499 -0.832031 139.991 0.611617 148.165 3.55836C163.812 9.19707 177.369 18.343 189.797 29.2723C191.118 30.4357 191.194 31.0514 189.623 32.0152C174.461 41.3013 158.445 48.4685 140.679 50.8421C124.723 52.9693 110.749 48.4431 99.098 37.1656C98.4356 36.5245 97.752 35.9088 97.1023 35.2592C96.4654 34.6223 95.8583 33.9556 95.2341 33.2975ZM134.264 221.256C134.298 216.7 133.627 211.516 132.09 206.493C127.924 192.867 121.016 180.927 109.573 172.138C100.075 164.844 92.126 163.816 81.8124 170.979C75.074 175.658 69.8896 181.755 65.6181 188.685C57.712 201.521 53.3598 215.206 55.9287 230.449C58.1026 243.335 65.3124 252.137 77.6853 256.541C85.774 259.419 94.1301 259.946 102.571 258.787C111.951 257.5 120.328 254.048 126.523 246.524C132.391 239.399 134.272 230.971 134.264 221.256Z" fill="url(#paint0_linear_9_1846)"/>
</g>
<defs>
<linearGradient id="paint0_linear_9_1846" x1="10.4435" y1="291.923" x2="254.545" y2="141.202" gradientUnits="userSpaceOnUse">
<stop stop-color="#F0F6FF"/>
<stop offset="1" stop-color="#FCFDFF"/>
</linearGradient>
<clipPath id="clip0_9_1846">
<rect width="190.795" height="309" fill="white"/>
</clipPath>
</defs>
</svg>
