<svg width="192" height="310" viewBox="0 0 192 310" fill="none" xmlns="http://www.w3.org/2000/svg">
<path d="M95.5428 33.4053C96.284 37.0005 97.4128 40.4211 97.9751 43.978C98.384 46.5679 98.8398 49.1579 99.0613 51.7648C99.1891 53.2345 99.679 53.899 101.178 54.0779C108.224 54.9171 114.929 56.9234 121.14 60.3866C131.367 66.0862 139.022 74.3586 145.267 84.1774C152.423 95.4317 155.733 108.194 159.997 120.573C166.442 139.29 172.457 158.161 179.686 176.589C182.953 184.917 186.506 193.1 188.325 201.913C189.304 206.658 189.62 211.459 189.88 216.273C190.604 229.729 188.499 242.739 183.256 255.151C178.272 266.947 170.979 277.136 161.373 285.685C146.008 299.364 127.934 306.878 107.679 309.229C89.8347 311.304 72.4634 309.255 55.7182 302.431C40.7409 296.326 28.0852 287.155 18.1301 274.389C12.3709 267.006 7.86832 258.917 4.9163 249.989C-3.02816 225.942 -1.16664 202.556 9.20162 179.575C12.9332 171.307 15.6892 162.617 18.637 154.029C23.4718 139.938 28.4132 125.88 33.0946 111.738C35.8422 103.44 38.5599 95.1548 42.8623 87.5043C49.9505 74.9039 59.3774 64.6378 72.7019 58.4825C78.1374 55.9735 83.9264 54.4741 89.9241 53.997C91.3895 53.8819 91.9433 53.6945 91.4065 52.0332C88.4673 42.9216 84.1735 34.5895 77.3621 27.7611C73.277 23.6674 68.5614 20.3832 63.2112 18.0744C59.633 16.5323 57.2219 13.9552 56.7491 10.0064C56.2891 6.18112 57.8737 3.19076 61.2219 1.28239C64.3187 -0.476892 67.4837 -0.353359 70.5252 1.47834C76.8254 5.27805 81.8349 10.4707 86.2096 16.3066C89.1191 20.1915 89.0637 20.2469 92.497 16.7368C100.982 8.06819 111.001 2.31325 123.125 0.490074C131.925 -0.834712 140.445 0.613607 148.645 3.56988C164.342 9.22685 177.944 18.4024 190.412 29.367C191.737 30.5342 191.813 31.1518 190.237 32.1188C175.026 41.4349 158.958 48.6254 141.135 51.0066C125.127 53.1407 111.108 48.5998 99.4192 37.2859C98.7546 36.6427 98.0688 36.025 97.4171 35.3733C96.7781 34.7343 96.169 34.0655 95.5428 33.4053ZM134.699 221.972C134.733 217.401 134.06 212.2 132.518 207.161C128.339 193.491 121.408 181.513 109.928 172.695C100.399 165.377 92.4246 164.346 82.0777 171.532C75.3174 176.227 70.1162 182.344 65.8309 189.296C57.8992 202.173 53.533 215.902 56.1101 231.195C58.2911 244.123 65.5242 252.953 77.9372 257.371C86.052 260.259 94.4352 260.787 102.904 259.624C112.313 258.334 120.718 254.87 126.933 247.322C132.82 240.174 134.707 231.719 134.699 221.972Z" fill="#BDD1F5"/>
</svg>
