<svg width="318" height="355" viewBox="0 0 318 355" fill="none" xmlns="http://www.w3.org/2000/svg">
<path d="M158.906 -103.611C160.134 -97.65 162.006 -91.9784 162.938 -86.0809C163.617 -81.7866 164.372 -77.4923 164.74 -73.1698C164.951 -70.733 165.764 -69.6312 168.25 -69.3346C179.932 -67.9432 191.049 -64.6165 201.347 -58.8743C218.305 -49.4241 230.997 -35.7078 241.351 -19.4277C253.217 -0.767334 258.705 20.3933 265.775 40.9183C276.461 71.9529 286.434 103.242 298.42 133.796C303.837 147.604 309.728 161.172 312.744 175.786C314.368 183.654 314.891 191.614 315.322 199.595C316.523 221.907 313.033 243.477 304.339 264.058C296.075 283.616 283.983 300.51 268.057 314.686C242.58 337.365 212.612 349.824 179.028 353.723C149.441 357.162 120.638 353.765 92.8739 342.45C68.0405 332.329 47.0564 317.122 30.5503 295.955C21.0011 283.715 13.5356 270.302 8.64096 255.498C-4.53147 215.628 -1.44495 176.852 15.7463 138.747C21.9335 125.038 26.5032 110.63 31.3908 96.3908C39.4072 73.0265 47.6003 49.7187 55.3625 26.2697C59.9181 12.511 64.4242 -1.22643 71.5578 -13.9115C83.3106 -34.8037 98.9409 -51.8255 121.034 -62.0315C130.046 -66.1916 139.645 -68.6777 149.589 -69.4688C152.019 -69.6595 152.937 -69.9702 152.047 -72.7248C147.174 -87.8325 140.054 -101.648 128.761 -112.97C121.987 -119.757 114.169 -125.203 105.298 -129.031C99.3647 -131.588 95.3671 -135.861 94.5831 -142.408C93.8203 -148.751 96.4477 -153.709 101.999 -156.873C107.134 -159.79 112.382 -159.585 117.425 -156.548C127.871 -150.248 136.177 -141.638 143.431 -131.962C148.255 -125.52 148.163 -125.429 153.855 -131.249C167.925 -145.622 184.537 -155.164 204.638 -158.187C219.23 -160.383 233.356 -157.982 246.952 -153.08C272.979 -143.701 295.531 -128.487 316.205 -110.307C318.401 -108.372 318.528 -107.347 315.915 -105.744C290.693 -90.2974 264.052 -78.3752 234.5 -74.427C207.958 -70.8884 184.714 -78.4175 165.333 -97.1768C164.231 -98.2433 163.094 -99.2674 162.013 -100.348C160.954 -101.407 159.944 -102.516 158.906 -103.611ZM223.828 209.045C223.885 201.466 222.769 192.843 220.212 184.487C213.283 161.822 201.792 141.961 182.757 127.341C166.957 115.207 153.735 113.497 136.579 125.412C125.371 133.196 116.747 143.338 109.641 154.865C96.4901 176.216 89.2506 198.98 93.5237 224.336C97.1399 245.772 109.133 260.414 129.714 267.738C143.169 272.527 157.069 273.403 171.11 271.475C186.712 269.334 200.648 263.592 210.952 251.077C220.714 239.225 223.842 225.205 223.828 209.045Z" fill="url(#paint0_linear_9_1845)"/>
<defs>
<linearGradient id="paint0_linear_9_1845" x1="17.8622" y1="326.595" x2="423.907" y2="75.8809" gradientUnits="userSpaceOnUse">
<stop stop-color="#F0F6FF"/>
<stop offset="1" stop-color="#FCFDFF"/>
</linearGradient>
</defs>
</svg>
